<svg version="1.1" baseProfile="full" xmlns="http://www.w3.org/2000/svg" width="1600" height="800">
  
  <rect width="100%" height="100%" fill="#dbf0fd" />

  <!-- lawn -->
  <path 
    d="M0 800, v-100, l40 -20, l5 20, l40 -20, l5 20, l40 -20, l5 20, l40 -20, l5 20, 
          l40 -20, l5 20, l40 -20, l5 20, l40 -20, l5 20, l40 -20, l5 20, l40 -20, l5 20, 
          l40 -20, l5 20, l40 -20, l5 20, l40 -20, l5 20, l40 -20, l5 20, l40 -20, l5 20, 
          l40 -20, l5 20, l40 -20, l5 20, l40 -20, l5 20, l40 -20, l5 20, l40 -20, l5 20, 
          l40 -20, l5 20, l40 -20, l5 20, l40 -20, l5 20, l40 -20, l5 20, l40 -20, l5 20, 
          l40 -20, l5 20, l40 -20, l5 20, l40 -20, l5 20, l40 -20, l5 20, l40 -20, l5 20, 
          l40 -20, l5 20, l40 -20, l5 20, l40 -20, l5 20, l40 -20, l5 20, l40 -20, l5 20, 
          l40 -20, l5 20, l40 -20, l5 20, v100, z" 
    fill="green"
  />

  <!-- sun -->
  <circle cx="900" cy="150" r="75" fill="#f8e1a6"/>

  <!-- frame -->
  <rect x="150" y="325" width="500" height="475" fill="#EEB422"/>

  <!-- door -->
  <rect x="275" y="430" width="250" height="350" fill="#855E42" stroke="black" stroke-width="3" rx="5" ry="5"/>

  <!-- door-knob -->
  <circle cx="480" cy="625" r="10" fill="#C6C3B5"/>

  <!-- roof -->
  <polyline points="50 400, 400 60, 750 400, 760 390, 400 20, 40 390, 52 402" fill="#8E2323"/>

  <!-- roof support -->
  <polygon points="127 325, 400 60, 673 325" fill="#EEB422"/>
  
  <!-- tree -->
  <!-- tree-trunk -->
  <path 
    d="M1190 275, 
      c 50 175, 50 350, -50 525, 
      h 300, 
      c -150 -175, -150 -350, -100 -525" 
    fill="#5d412e"
  />

  <!-- tree-head-->
  <path 
    d="M1200 400, 
      c -100 150, -300 150, -250 -150, 
      c -50 -150, -50 -250, 200 -200,
      c 150 -50, 200 -50, 300 50,
      c 100 50, 250 50, 100 200,
      c 100 100, 100 200, -200 150,
      z" 
    fill="darkgreen"
  />

</svg>
